{"asset":{"generator":"Khronos glTF Blender I/O v4.0.44","version":"2.0"},"extensionsUsed":["KHR_materials_specular","KHR_materials_ior"],"scene":0,"scenes":[{"name":"Scene","nodes":[0]}],"nodes":[{"mesh":0,"name":"Column_Simple"}],"materials":[{"doubleSided":true,"extensions":{"KHR_materials_specular":{"specularFactor":0},"KHR_materials_ior":{"ior":1.4500000476837158}},"name":"MI_Trim_01","normalTexture":{"index":0},"pbrMetallicRoughness":{"baseColorTexture":{"index":1}}},{"doubleSided":true,"name":"MI_Trim_02","normalTexture":{"index":2},"pbrMetallicRoughness":{"baseColorTexture":{"index":3}}}],"meshes":[{"name":"Cube.035","primitives":[{"attributes":{"POSITION":0,"NORMAL":1,"TEXCOORD_0":2},"indices":3,"material":0},{"attributes":{"POSITION":4,"NORMAL":5,"TEXCOORD_0":6},"indices":7,"material":1}]}],"textures":[{"sampler":0,"source":0},{"sampler":0,"source":1},{"sampler":0,"source":2},{"sampler":0,"source":3}],"images":[{"mimeType":"image/jpeg","name":"T_Trim_01_Normal","uri":"../../textures/T_Trim_01_Normal.jpg"},{"mimeType":"image/jpeg","name":"T_Trim_01_BaseColor_Red","uri":"../../textures/T_Trim_01_BaseColor_Red.jpg"},{"mimeType":"image/jpeg","name":"T_Trim_02_Normal","uri":"../../textures/T_Trim_02_Normal.jpg"},{"mimeType":"image/jpeg","name":"T_Trim_02_BaseColor_Red","uri":"../../textures/T_Trim_02_BaseColor_Red.jpg"}],"accessors":[{"bufferView":0,"componentType":5126,"count":142,"max":[0.25342467427253723,4.999999523162842,0.4686601758003235],"min":[-0.25342464447021484,0,-0.5062192678451538],"type":"VEC3"},{"bufferView":1,"componentType":5126,"count":142,"type":"VEC3"},{"bufferView":2,"componentType":5126,"count":142,"type":"VEC2"},{"bufferView":3,"componentType":5123,"count":276,"type":"SCALAR"},{"bufferView":4,"componentType":5126,"count":32,"max":[0.25342464447021484,4.999999523162842,0.12903375923633575],"min":[-0.25342464447021484,0,0.08713608235120773],"type":"VEC3"},{"bufferView":5,"componentType":5126,"count":32,"type":"VEC3"},{"bufferView":6,"componentType":5126,"count":32,"type":"VEC2"},{"bufferView":7,"componentType":5123,"count":48,"type":"SCALAR"}],"bufferViews":[{"buffer":0,"byteLength":1704,"byteOffset":0,"target":34962},{"buffer":0,"byteLength":1704,"byteOffset":1704,"target":34962},{"buffer":0,"byteLength":1136,"byteOffset":3408,"target":34962},{"buffer":0,"byteLength":552,"byteOffset":4544,"target":34963},{"buffer":0,"byteLength":384,"byteOffset":5096,"target":34962},{"buffer":0,"byteLength":384,"byteOffset":5480,"target":34962},{"buffer":0,"byteLength":256,"byteOffset":5864,"target":34962},{"buffer":0,"byteLength":96,"byteOffset":6120,"target":34963}],"samplers":[{"magFilter":9729,"minFilter":9987}],"buffers":[{"byteLength":6216,"uri":"Column_Simple.bin"}]}