{"asset":{"generator":"Khronos glTF Blender I/O v4.0.44","version":"2.0"},"extensionsUsed":["KHR_materials_specular","KHR_materials_ior"],"scene":0,"scenes":[{"name":"Scene","nodes":[0]}],"nodes":[{"mesh":0,"name":"Column_MetalSupport"}],"materials":[{"doubleSided":true,"extensions":{"KHR_materials_specular":{"specularFactor":0},"KHR_materials_ior":{"ior":1.4500000476837158}},"name":"MI_PaddedWall","normalTexture":{"index":0},"pbrMetallicRoughness":{"baseColorTexture":{"index":1}}},{"doubleSided":true,"name":"MI_Trim_02","normalTexture":{"index":2},"pbrMetallicRoughness":{"baseColorTexture":{"index":3}}}],"meshes":[{"name":"Plane.132","primitives":[{"attributes":{"POSITION":0,"NORMAL":1,"TEXCOORD_0":2},"indices":3,"material":0},{"attributes":{"POSITION":4,"NORMAL":5,"TEXCOORD_0":6},"indices":7,"material":1}]}],"textures":[{"sampler":0,"source":0},{"sampler":0,"source":1},{"sampler":0,"source":2},{"sampler":0,"source":3}],"images":[{"mimeType":"image/jpeg","name":"T_PaddedWall_Normal","uri":"../../textures/T_PaddedWall_Normal.jpg"},{"mimeType":"image/jpeg","name":"T_PaddedWall_BaseColor","uri":"../../textures/T_PaddedWall_BaseColor.jpg"},{"mimeType":"image/jpeg","name":"T_Trim_02_Normal","uri":"../../textures/T_Trim_02_Normal.jpg"},{"mimeType":"image/jpeg","name":"T_Trim_02_BaseColor_Red","uri":"../../textures/T_Trim_02_BaseColor_Red.jpg"}],"accessors":[{"bufferView":0,"componentType":5126,"count":360,"max":[0.48569005727767944,0.021999044343829155,2],"min":[-0.47093895077705383,-0.022009747102856636,-2],"type":"VEC3"},{"bufferView":1,"componentType":5126,"count":360,"type":"VEC3"},{"bufferView":2,"componentType":5126,"count":360,"type":"VEC2"},{"bufferView":3,"componentType":5123,"count":1164,"type":"SCALAR"},{"bufferView":4,"componentType":5126,"count":384,"max":[0.48569005727767944,0.021999044343829155,2],"min":[-0.47093895077705383,-0.022009747102856636,-2],"type":"VEC3"},{"bufferView":5,"componentType":5126,"count":384,"type":"VEC3"},{"bufferView":6,"componentType":5126,"count":384,"type":"VEC2"},{"bufferView":7,"componentType":5123,"count":1080,"type":"SCALAR"}],"bufferViews":[{"buffer":0,"byteLength":4320,"byteOffset":0,"target":34962},{"buffer":0,"byteLength":4320,"byteOffset":4320,"target":34962},{"buffer":0,"byteLength":2880,"byteOffset":8640,"target":34962},{"buffer":0,"byteLength":2328,"byteOffset":11520,"target":34963},{"buffer":0,"byteLength":4608,"byteOffset":13848,"target":34962},{"buffer":0,"byteLength":4608,"byteOffset":18456,"target":34962},{"buffer":0,"byteLength":3072,"byteOffset":23064,"target":34962},{"buffer":0,"byteLength":2160,"byteOffset":26136,"target":34963}],"samplers":[{"magFilter":9729,"minFilter":9987}],"buffers":[{"byteLength":28296,"uri":"Column_MetalSupport.bin"}]}