{"asset":{"generator":"Khronos glTF Blender I/O v4.0.44","version":"2.0"},"scene":0,"scenes":[{"name":"Scene","nodes":[0]}],"nodes":[{"mesh":0,"name":"Platform_Metal"}],"materials":[{"doubleSided":true,"name":"MI_Trim_02","normalTexture":{"index":0},"pbrMetallicRoughness":{"baseColorTexture":{"index":1}}}],"meshes":[{"name":"Plane.129","primitives":[{"attributes":{"POSITION":0,"NORMAL":1,"TEXCOORD_0":2},"indices":3,"material":0}]}],"textures":[{"sampler":0,"source":0},{"sampler":0,"source":1}],"images":[{"mimeType":"image/jpeg","name":"T_Trim_02_Normal","uri":"../../textures/T_Trim_02_Normal.jpg"},{"mimeType":"image/jpeg","name":"T_Trim_02_BaseColor_Red","uri":"../../textures/T_Trim_02_BaseColor_Red.jpg"}],"accessors":[{"bufferView":0,"componentType":5126,"count":9,"max":[2,0,2],"min":[-2,0,-2],"type":"VEC3"},{"bufferView":1,"componentType":5126,"count":9,"type":"VEC3"},{"bufferView":2,"componentType":5126,"count":9,"type":"VEC2"},{"bufferView":3,"componentType":5123,"count":24,"type":"SCALAR"}],"bufferViews":[{"buffer":0,"byteLength":108,"byteOffset":0,"target":34962},{"buffer":0,"byteLength":108,"byteOffset":108,"target":34962},{"buffer":0,"byteLength":72,"byteOffset":216,"target":34962},{"buffer":0,"byteLength":48,"byteOffset":288,"target":34963}],"samplers":[{"magFilter":9729,"minFilter":9987}],"buffers":[{"byteLength":336,"uri":"Platform_Metal.bin"}]}